<svg width="134" height="134" viewBox="0 0 134 134" fill="none" xmlns="http://www.w3.org/2000/svg">
<path d="M80.8397 115.01L58.4994 74.4746L19.0112 53.1393C18.6718 52.9317 18.3985 52.6317 18.2234 52.2744C18.0483 51.9171 17.9786 51.5173 18.0225 51.1218C18.0665 50.7263 18.2222 50.3516 18.4715 50.0414C18.7207 49.7313 19.0532 49.4986 19.43 49.3706L113.23 18.0899C113.601 17.963 113.999 17.9427 114.381 18.0311C114.763 18.1196 115.112 18.3133 115.389 18.5903C115.666 18.8673 115.859 19.2164 115.948 19.598C116.036 19.9796 116.016 20.3784 115.889 20.749L84.6084 114.591C84.4804 114.968 84.2477 115.3 83.9376 115.549C83.6274 115.799 83.2526 115.954 82.8572 115.998C82.4617 116.042 82.0619 115.973 81.7046 115.797C81.3473 115.622 81.0473 115.349 80.8397 115.01V115.01Z" stroke="white" stroke-width="3"/>
<path d="M115.428 18.6553L58.4994 74.4746" stroke="white" stroke-width="3" stroke-linecap="round"/>
</svg>
