<svg width="41" height="41" viewBox="0 0 41 41" fill="none" xmlns="http://www.w3.org/2000/svg">
<g clip-path="url(#clip0_10_81)">
<path d="M9.54372 13.1901H1.3129C0.947605 13.1901 0.651611 13.4862 0.651611 13.8514V40.2935C0.651611 40.6588 0.947605 40.9548 1.3129 40.9548H9.54372C9.90902 40.9548 10.205 40.6588 10.205 40.2935V13.8514C10.205 13.4862 9.90902 13.1901 9.54372 13.1901Z" fill="#1E4051"/>
<path d="M5.43131 0.0450974C2.43646 0.0450974 0 2.47891 0 5.47046C0 8.46332 2.43646 10.8981 5.43131 10.8981C8.42378 10.8981 10.8583 8.46319 10.8583 5.47046C10.8584 2.47891 8.42378 0.0450974 5.43131 0.0450974Z" fill="#1E4051"/>
<path d="M30.4794 12.5329C27.1736 12.5329 24.7298 13.954 23.2476 15.5688V13.8514C23.2476 13.4862 22.9516 13.1901 22.5863 13.1901H14.7039C14.3386 13.1901 14.0426 13.4862 14.0426 13.8514V40.2935C14.0426 40.6588 14.3386 40.9548 14.7039 40.9548H22.9167C23.282 40.9548 23.578 40.6588 23.578 40.2935V27.2108C23.578 22.8022 24.7755 21.0847 27.8486 21.0847C31.1955 21.0847 31.4615 23.8381 31.4615 27.4376V40.2936C31.4615 40.6589 31.7575 40.9549 32.1228 40.9549H40.3387C40.704 40.9549 41 40.6589 41 40.2936V25.7897C41 19.2343 39.75 12.5329 30.4794 12.5329Z" fill="#1E4051"/>
</g>
<defs>
<clipPath id="clip0_10_81">
<rect width="41" height="41" fill="white"/>
</clipPath>
</defs>
</svg>
