<svg width="385" height="450" viewBox="0 0 385 450" fill="none" xmlns="http://www.w3.org/2000/svg">
<g clip-path="url(#clip0_385_15)">
<path d="M363.1 181.8C343.06 209.47 335.03 241.95 331.92 275.75C328.172 317.09 323.135 358.21 314.03 398.55L307.28 428.19C304.6 440.33 293.99 448.97 281.89 448.97C269.89 448.97 259.5 440.659 256.6 428.74L227.03 307.54C223.1 291.6 209.1 280.4 193 280.4C176.82 280.4 162.79 291.66 158.93 307.63L129.36 428.83C126.467 440.75 115.97 449.06 104.07 449.06C91.86 449.06 81.36 440.421 78.57 428.28L71.927 398.64C62.822 358.28 57.787 317.16 54.827 275.84C50.93 241.1 42.9 209.5 22.86 181.8C4.10999 155.88 -4.25002 121.65 4.42998 85.23C13.858 45.64 44.82 13.48 83.28 3.19995C103.42 -2.05005 122.82 2.76245 140.6 12.277L226.74 68.817C233.383 73.192 241.85 70.677 245.7 64.553C249.77 58.099 247.95 49.463 241.52 45.193L217.31 29.333C220.31 27.802 223.525 26.598 226.31 24.52C248.7 7.67995 275.06 -4.13005 302.7 3.18995C341.16 13.47 372.13 45.62 381.55 85.22C390.2 121.7 381.9 156 363.1 181.8Z" fill="#0C4A6E"/>
</g>
<defs>
<clipPath id="clip0_385_15">
<rect width="385" height="450" fill="white"/>
</clipPath>
</defs>
</svg>
