<svg width="59" height="52" viewBox="0 0 59 52" fill="none" xmlns="http://www.w3.org/2000/svg">
<path d="M34.1606 20.4547C34.1606 18.2102 32.5627 16.9711 29.7561 16.9711H24.5936V24.2023H28.9469C32.3066 24.1922 34.1606 22.8516 34.1606 20.4547ZM52.9566 19.1547C51.9835 16.0164 51.8401 12.1672 51.9528 9.19141C52.0655 6.09375 49.6276 3.25 46.3499 3.25H12.6707C9.38267 3.25 6.95506 6.10391 7.06774 9.19141C7.17017 12.1672 7.03701 16.0164 6.06392 19.1547C5.08058 22.3031 3.43145 24.2937 0.717041 24.5477V27.4422C3.42121 27.6961 5.08058 29.6867 6.06392 32.8352C7.03701 35.9734 7.18041 39.8227 7.06774 42.7984C6.95506 45.8961 9.39291 48.7398 12.6707 48.7398H46.3396C49.6276 48.7398 52.0552 45.8859 51.9426 42.7984C51.8401 39.8227 51.9733 35.9734 52.9464 32.8352C53.9297 29.6867 55.5788 27.6961 58.283 27.4422V24.5477C55.5891 24.2937 53.9297 22.3031 52.9566 19.1547ZM30.7497 38.0961H20.7217V13.8937H30.6985C35.1337 13.8937 38.0427 16.2703 38.0427 19.9266C38.0427 22.4961 36.0863 24.7914 33.587 25.1875V25.3195C36.9877 25.6852 39.2719 28.0211 39.2719 31.2406C39.2719 35.5164 36.0658 38.0961 30.7497 38.0961ZM29.7254 27.0562H24.5936V35.0187H29.9507C33.4538 35.0187 35.3078 33.6273 35.3078 31.007C35.3078 28.3969 33.4026 27.0562 29.7254 27.0562Z" fill="#1E3A8A"/>
</svg>
