<svg width="350" height="350" viewBox="0 0 350 350" fill="none" xmlns="http://www.w3.org/2000/svg">
<rect width="350" height="350" rx="175" fill="#1E3A8A"/>
<path d="M239.752 132C233.952 119.8 225.552 110.4 214.552 103.8C203.552 97 190.752 93.6 176.152 93.6C161.552 93.6 148.352 97 136.552 103.8C124.952 110.4 115.752 120 108.952 132.6C102.352 145 99.052 159.4 99.052 175.8C99.052 192.2 102.352 206.6 108.952 219C115.752 231.4 124.952 241 136.552 247.8C148.352 254.4 161.552 257.7 176.152 257.7C196.552 257.7 213.352 251.6 226.552 239.4C239.752 227.2 247.452 210.7 249.652 189.9H166.252V167.7H278.752V188.7C277.152 205.9 271.752 221.7 262.552 236.1C253.352 250.3 241.252 261.6 226.252 270C211.252 278.2 194.552 282.3 176.152 282.3C156.752 282.3 139.052 277.8 123.052 268.8C107.052 259.6 94.352 246.9 84.952 230.7C75.752 214.5 71.152 196.2 71.152 175.8C71.152 155.4 75.752 137.1 84.952 120.9C94.352 104.5 107.052 91.8 123.052 82.8C139.052 73.6 156.752 69 176.152 69C198.352 69 217.952 74.5 234.952 85.5C252.152 96.5 264.652 112 272.452 132H239.752Z" fill="white"/>
</svg>
